Coordinates
version=1
nRows=22
nColumns=24
inDegrees=yes

Units are S.I. units (second, meters, Newtons, ...)
Angles are in degrees.

endheader
time	pelvis_tilt	pelvis_list	pelvis_rotation	pelvis_tx	pelvis_ty	pelvis_tz	hip_flexion_r	hip_adduction_r	hip_rotation_r	knee_angle_r	ankle_angle_r	subtalar_angle_r	mtp_angle_r	hip_flexion_l	hip_adduction_l	hip_rotation_l	knee_angle_l	ankle_angle_l	subtalar_angle_l	mtp_angle_l	lumbar_extension	lumbar_bending	lumbar_rotation
      7.73000000	     -7.39220769	     -6.95183822	      5.68254283	     -0.83428618	     -0.01733594	      2.08790342	      1.76191441	     12.25214077	    -11.53958380	     -8.37421309	      6.69338398	     -3.90010598	      4.51975612	     36.19884178	     -3.85061272	      3.04907162	    -41.04357827	     -2.20492572	     -5.55491479	     35.36723932	      4.91135193	      6.49079119	      0.68867420
      7.74000000	     -7.41970642	     -6.63128104	      5.53889788	     -0.82211212	     -0.01818586	      2.08810605	      0.59072706	     12.04012810	    -11.63825829	     -7.76747383	      7.04044964	     -3.39040263	      4.59877401	     36.51572237	     -3.56961804	      2.21379333	    -37.79620153	     -2.27972295	     -4.46871586	     35.13648558	      4.74231819	      6.15505703	      1.04254580
      7.75000000	     -7.42731775	     -6.32878474	      5.38137840	     -0.80979389	     -0.01913354	      2.08820798	     -0.58450066	     11.83051368	    -11.78826964	     -7.21049872	      7.36472030	     -2.80655980	      4.67831390	     36.65627798	     -3.33295695	      1.26762315	    -34.39800002	     -2.47348697	     -3.30603122	     34.96916540	      4.57508469	      5.84593341	      1.30625501
      7.76000000	     -7.47000149	     -6.06447528	      5.19004044	     -0.79737977	     -0.02022643	      2.08827524	     -1.66962500	     11.63903122	    -11.98378695	     -6.75846376	      7.66889657	     -2.17362389	      4.73883784	     36.70801328	     -3.14950487	      0.27199532	    -30.93737862	     -2.75520642	     -2.05455259	     34.80468869	      4.45828994	      5.57339935	      1.64340438
      7.77000000	     -7.48774778	     -5.79924552	      4.98250805	     -0.78483200	     -0.02135645	      2.08826153	     -2.72005829	     11.41980870	    -12.22371961	     -6.44165861	      7.96725058	     -1.47239094	      4.78704515	     36.60620412	     -2.97072256	     -0.80294776	    -27.46329066	     -3.10079682	     -0.88081218	     34.52504215	      4.33566701	      5.30698433	      1.88442426
      7.78000000	     -7.43720661	     -5.49804378	      4.80418126	     -0.77212137	     -0.02245813	      2.08812361	     -3.77892147	     11.13436877	    -12.54750782	     -6.26838954	      8.27780045	     -0.68279601	      4.82636355	     36.31449599	     -2.71896234	     -1.80722563	    -24.04070731	     -3.43980210	      0.15489670	     34.03094487	      4.16482776	      5.00163605	      2.09843096
      7.79000000	     -7.27837567	     -5.15560088	      4.73281498	     -0.75924242	     -0.02350695	      2.08776901	     -4.88204990	     10.78188693	    -13.00353320	     -6.24309162	      8.58812782	      0.16844191	      4.82609515	     35.83162457	     -2.34421186	     -2.63300156	    -20.77540526	     -3.63592308	      1.05741691	     32.96307867	      3.91084546	      4.64907619	      2.14256319
      7.80000000	     -7.40041319	     -4.86617627	      4.40718257	     -0.74623988	     -0.02482208	      2.08760152	     -5.52290929	     10.40074464	    -13.23227923	     -6.54684652	      8.89491086	      0.97645678	      4.87820536	     35.60455542	     -2.13777094	     -3.62935106	    -17.76079456	     -3.68579925	      1.89795753	     32.25946609	      3.96452564	      4.35966763	      2.43561864
      7.81000000	     -7.38254233	     -4.49400900	      4.16548235	     -0.73298115	     -0.02598068	      2.08724651	     -6.24330038	      9.89550915	    -13.54558131	     -7.01778453	      9.19312452	      1.87733710	      4.93049781	     35.16419752	     -1.79694713	     -4.44668681	    -15.01157183	     -3.56219694	      2.59873729	     31.39668006	      3.90344486	      3.97672330	      2.58971360
      7.82000000	     -7.30413336	     -4.07223953	      3.99935388	     -0.71948643	     -0.02706836	      2.08662816	     -6.94998131	      9.29991049	    -13.80417904	     -7.65777292	      9.42035185	      2.66484009	      4.83100622	     34.64306459	     -1.32315090	     -4.88018528	    -12.70537726	     -3.02790513	      3.11676833	     28.58097404	      3.80629141	      3.54808357	      2.61745424
      7.83000000	     -7.38324926	     -3.73032322	      3.73262633	     -0.70571935	     -0.02830432	      2.08611327	     -7.36680014	      8.72070249	    -14.01094944	     -8.53667260	      9.56397844	      3.51675464	      4.89312208	     34.30705824	     -1.00326116	     -5.42257472	    -10.80932668	     -2.62071797	      3.67532075	     27.97170889	      3.91623403	      3.18527881	      2.73235103
      7.84000000	     -7.49764040	     -3.39074113	      3.33394155	     -0.69167163	     -0.02949059	      2.08558281	     -7.65109541	      8.07505261	    -13.96407011	     -9.61764054	      9.59815190	      4.31444378	      4.98700382	     33.99430190	     -0.72422906	     -5.73830967	     -9.39577911	     -2.25920204	      3.75934873	     27.31145723	      4.09342134	      2.84527983	      2.94403133
      7.85000000	     -7.37926031	     -2.96350655	      3.15756050	     -0.67716822	     -0.03045645	      2.08488630	     -8.18743826	      7.34203127	    -14.16257291	    -10.72354496	      9.49381341	      5.19397676	      5.24157811	     33.46192790	     -0.26216467	     -5.70334127	     -8.61867427	     -1.58648473	      3.91559183	     25.10249748	      4.08576528	      2.36641462	      2.93204608
      7.86000000	     -7.53590151	     -2.71802810	      2.78542954	     -0.66260411	     -0.03170879	      2.08433993	     -8.24762760	      6.72182109	    -14.07144599	    -12.13200770	      9.25393625	      5.95197377	      5.79907395	     33.35404874	     -0.07212794	     -5.53963536	     -8.55536600	     -0.95167385	      3.87813210	     23.27626024	      4.37745219	      2.08645314	      3.11783302
      7.87000000	     -7.64759616	     -2.47236171	      2.35684001	     -0.64762767	     -0.03286057	      2.08395489	     -8.32996124	      6.11191478	    -13.68517699	    -13.57899855	      8.73661971	      6.36966319	      5.93305965	     33.19512116	      0.06452904	     -5.27888559	     -8.94016790	     -0.74606162	      3.48140987	     23.11724602	      4.67567579	      1.79352303	      3.40481494
      7.88000000	     -7.63605534	     -2.16028955	      2.08383041	     -0.63230019	     -0.03391906	      2.08331905	     -8.51550882	      5.39174411	    -13.63011417	    -15.06441114	      7.81593563	      7.02307093	      8.22606524	     32.93833758	      0.35578783	     -4.73884861	     -9.85898357	     -0.47582683	      2.94769450	     20.74730243	      4.88383557	      1.41165106	      3.54905352
      7.89000000	     -7.77735754	     -1.84422921	      1.87530089	     -0.61680081	     -0.03509728	      2.08251085	     -8.40713260	      4.62934623	    -13.58185465	    -16.81247835	      7.01088218	      7.76805735	      8.71742438	     32.83502793	      0.69819024	     -4.12842704	    -10.90774088	     -1.24273157	      1.81659506	     20.17147889	      5.27700364	      1.01381673	      3.63918390
      7.90000000	     -7.81893800	     -1.41228210	      1.72281914	     -0.60126047	     -0.03598627	      2.08148595	     -8.33172658	      3.68412085	    -13.76936841	    -18.58316041	      5.43141543	      8.54429358	     12.44682812	     32.65083464	      1.17864179	     -3.65885385	    -12.20664256	     -1.90548823	      0.74085037	     16.27922214	      5.55147018	      0.50888878	      3.74479656
      7.91000000	     -8.02655033	     -0.89986127	      1.74384547	     -0.58579665	     -0.03680113	      2.08021387	     -7.93286581	      2.62273523	    -14.13333503	    -20.55281532	      3.52971407	      9.27903985	     15.65052045	     32.70746313	      1.81375996	     -3.29597174	    -13.51195639	     -3.14946216	     -0.50251222	     12.98760111	      5.98493643	     -0.11195395	      3.68397182
      7.92000000	     -8.33203221	     -0.33238296	      1.86841631	     -0.57053211	     -0.03743152	      2.07884073	     -7.26215299	      1.45666739	    -14.65822395	    -22.68478823	      0.98809118	      9.89446007	     19.49623572	     33.01331669	      2.50630477	     -3.22632452	    -14.95653576	     -4.52033851	     -1.50340714	     10.70920782	      6.48169615	     -0.81119120	      3.53232333
      7.93000000	     -8.66641366	      0.23198075	      2.04472718	     -0.55538957	     -0.03783390	      2.07750454	     -6.38087242	      0.24425759	    -15.30649432	    -24.94871931	     -2.36441338	     10.25668520	     24.11250822	     33.50194031	      3.15043150	     -3.48170516	    -16.59675578	     -5.85559442	     -2.06149668	     10.52858121	      6.98355612	     -1.52645192	      3.42847187
      7.94000000	     -8.93460770	      0.72353711	      2.24897003	     -0.54036662	     -0.03800011	      2.07615543	     -5.37505662	     -0.92495988	    -15.95187712	    -27.30546741	     -6.63734312	     10.13153323	     29.59066768	     33.98719232	      3.70419570	     -3.83027721	    -18.32694248	     -7.17249450	     -2.47750396	     12.54817980	      7.38916161	     -2.15734727	      3.29728715
